<svg width="697" height="82" viewBox="0 0 697 82" fill="none" xmlns="http://www.w3.org/2000/svg">
<path d="M123.3 67.0999C125.3 67.0999 126.933 66.9666 128.2 66.7C129.533 66.2999 130.6 65.8333 131.4 65.2999C132.2 64.6999 132.733 64 133 63.2C133.333 62.4 133.5 61.5332 133.5 60.5999C133.5 58.5332 132.533 56.8333 130.6 55.4999C128.667 54.0999 125.3 52.5999 120.5 50.9999C118.433 50.2666 116.367 49.4333 114.3 48.4999C112.233 47.5666 110.4 46.3999 108.8 44.9999C107.133 43.5333 105.8 41.7999 104.8 39.7999C103.733 37.7333 103.2 35.2333 103.2 32.2999C103.2 29.3666 103.767 26.7666 104.9 24.4999C105.967 22.0999 107.5 20.0999 109.5 18.4999C111.5 16.8333 113.933 15.5666 116.8 14.7C119.667 13.7666 122.9 13.2999 126.5 13.2999C130.767 13.2999 134.433 13.7666 137.5 14.7C140.633 15.6333 143.2 16.6333 145.2 17.7L141.1 28.9C139.3 28.0333 137.3 27.2666 135.1 26.5999C132.967 25.8666 130.4 25.4999 127.4 25.4999C124 25.4999 121.533 25.9666 120 26.9C118.533 27.8333 117.8 29.2666 117.8 31.2C117.8 32.4 118.067 33.3666 118.6 34.0999C119.2 34.8999 119.967 35.6333 120.9 36.2999C121.967 36.8999 123.133 37.4999 124.4 38.0999C125.733 38.5666 127.2 39.0666 128.8 39.5999C132.067 40.7999 134.9 42.0333 137.3 43.2999C139.767 44.4333 141.767 45.8 143.3 47.4C144.967 48.9333 146.2 50.7666 147 52.9C147.8 55.0333 148.2 57.6333 148.2 60.7C148.2 66.5666 146.133 71.1333 142 74.4C137.867 77.6666 131.633 79.2999 123.3 79.2999C120.5 79.2999 117.967 79.1333 115.7 78.7999C113.433 78.4666 111.433 78.0333 109.7 77.4999C107.967 77.0333 106.467 76.5333 105.2 75.9999C104 75.4666 102.967 74.9333 102.1 74.4L106.1 63.0999C108.033 64.1666 110.367 65.1333 113.1 65.9999C115.9 66.7333 119.3 67.0999 123.3 67.0999ZM159.1 77.9999V14.7999H173.3V77.9999H159.1ZM205.2 67.0999C207.2 67.0999 208.833 66.9666 210.1 66.7C211.433 66.2999 212.5 65.8333 213.3 65.2999C214.1 64.6999 214.667 64 215 63.2C215.267 62.4 215.4 61.5332 215.4 60.5999C215.4 58.5332 214.433 56.8333 212.5 55.4999C210.567 54.0999 207.233 52.5999 202.5 50.9999C200.433 50.2666 198.367 49.4333 196.3 48.4999C194.233 47.5666 192.367 46.3999 190.7 44.9999C189.033 43.5333 187.7 41.7999 186.7 39.7999C185.633 37.7333 185.1 35.2333 185.1 32.2999C185.1 29.3666 185.667 26.7666 186.8 24.4999C187.867 22.0999 189.4 20.0999 191.4 18.4999C193.4 16.8333 195.833 15.5666 198.7 14.7C201.567 13.7666 204.8 13.2999 208.4 13.2999C212.667 13.2999 216.333 13.7666 219.4 14.7C222.533 15.6333 225.1 16.6333 227.1 17.7L223 28.9C221.2 28.0333 219.233 27.2666 217.1 26.5999C214.967 25.8666 212.367 25.4999 209.3 25.4999C205.9 25.4999 203.433 25.9666 201.9 26.9C200.433 27.8333 199.7 29.2666 199.7 31.2C199.7 32.4 199.967 33.3666 200.5 34.0999C201.1 34.8999 201.867 35.6333 202.8 36.2999C203.867 36.8999 205.033 37.4999 206.3 38.0999C207.633 38.5666 209.1 39.0666 210.7 39.5999C213.967 40.7999 216.8 42.0333 219.2 43.2999C221.667 44.4333 223.7 45.8 225.3 47.4C226.9 48.9333 228.1 50.7666 228.9 52.9C229.7 55.0333 230.1 57.6333 230.1 60.7C230.1 66.5666 228.033 71.1333 223.9 74.4C219.767 77.6666 213.533 79.2999 205.2 79.2999C202.4 79.2999 199.867 79.1333 197.6 78.7999C195.4 78.4666 193.4 78.0333 191.6 77.4999C189.933 77.0333 188.433 76.5333 187.1 75.9999C185.9 75.4666 184.867 74.9333 184 74.4L188.1 63.0999C189.967 64.1666 192.267 65.1333 195 65.9999C197.8 66.7333 201.2 67.0999 205.2 67.0999ZM233.7 14.7999H286.1V26.9H267V77.9999H252.8V26.9H233.7V14.7999ZM340 77.9999H295.2V14.7999H337.9V26.7999H309.4V39.2H334.7V50.9H309.4V66.0999H340V77.9999ZM353.7 14.7999H367.2C368.333 16.7999 369.6 19.2999 371 22.2999C372.467 25.1666 373.933 28.3333 375.4 31.7999C377 35.1999 378.567 38.6999 380.1 42.2999C381.633 45.8999 383.067 49.2666 384.4 52.4C385.733 49.2666 387.167 45.8999 388.7 42.2999C390.233 38.6999 391.733 35.1999 393.2 31.7999C394.8 28.3333 396.3 25.1666 397.7 22.2999C399.167 19.2999 400.433 16.7999 401.5 14.7999H414.5C415.1 18.9999 415.633 23.7 416.1 28.9C416.633 34.1 417.1 39.5333 417.5 45.2C417.9 50.7333 418.267 56.3333 418.6 61.9999C418.933 67.6666 419.233 72.9999 419.5 77.9999H405.6C405.467 71.8666 405.233 65.1666 404.9 57.9C404.567 50.7 404.1 43.3999 403.5 35.9999C402.433 38.5999 401.233 41.4333 399.9 44.4999C398.567 47.6333 397.233 50.7333 395.9 53.7999C394.633 56.9333 393.367 59.9333 392.1 62.7999C390.9 65.5333 389.867 67.9333 389 69.9999H379.1C378.233 67.9333 377.2 65.5333 376 62.7999C374.8 59.9333 373.533 56.9333 372.2 53.7999C370.933 50.7333 369.6 47.6333 368.2 44.4999C366.867 41.4333 365.667 38.5999 364.6 35.9999C364 43.3999 363.533 50.7 363.2 57.9C362.933 65.1666 362.7 71.8666 362.5 77.9999H348.6C348.867 72.9999 349.167 67.6666 349.5 61.9999C349.833 56.3333 350.2 50.7333 350.6 45.2C351 39.5333 351.433 34.1 351.9 28.9C352.433 23.7 353.033 18.9999 353.7 14.7999ZM489.8 77.9999H474.6C473.933 75.7999 473.167 73.5333 472.3 71.2C471.5 68.9333 470.7 66.6333 469.9 64.2999H445.3C444.5 66.6333 443.667 68.9333 442.8 71.2C442.067 73.5333 441.367 75.7999 440.7 77.9999H425.9C428.233 71.1999 430.467 64.8999 432.6 59.0999C434.733 53.2999 436.8 47.8666 438.8 42.7999C440.867 37.6666 442.867 32.8333 444.8 28.2999C446.867 23.6999 448.933 19.1999 451 14.7999H464.6C466.667 19.1999 468.7 23.6999 470.7 28.2999C472.767 32.8333 474.8 37.6666 476.8 42.7999C478.867 47.8666 480.967 53.2999 483.1 59.0999C485.167 64.8999 487.4 71.1999 489.8 77.9999ZM457.5 29.0999C457.233 30.0332 456.8 31.2666 456.2 32.7999C455.533 34.3999 454.833 36.2333 454.1 38.2999C453.3 40.3666 452.4 42.6666 451.4 45.2C450.467 47.6666 449.533 50.2666 448.6 52.9999H466.5C465.567 50.2666 464.633 47.6666 463.7 45.2C462.833 42.6666 461.967 40.3666 461.1 38.2999C460.3 36.2333 459.6 34.3999 459 32.7999C458.4 31.2666 457.9 30.0332 457.5 29.0999ZM577.4 77.9999H562.2C561.533 75.7999 560.767 73.5333 559.9 71.2C559.1 68.9333 558.333 66.6333 557.6 64.2999H532.9C532.167 66.6333 531.367 68.9333 530.5 71.2C529.7 73.5333 528.967 75.7999 528.3 77.9999H513.5C515.9 71.1999 518.167 64.8999 520.3 59.0999C522.433 53.2999 524.5 47.8666 526.5 42.7999C528.567 37.6666 530.567 32.8333 532.5 28.2999C534.5 23.6999 536.567 19.1999 538.7 14.7999H552.3C554.367 19.1999 556.4 23.6999 558.4 28.2999C560.4 32.8333 562.4 37.6666 564.4 42.7999C566.467 47.8666 568.567 53.2999 570.7 59.0999C572.833 64.8999 575.067 71.1999 577.4 77.9999ZM545.2 29.0999C544.867 30.0332 544.4 31.2666 543.8 32.7999C543.2 34.3999 542.5 36.2333 541.7 38.2999C540.9 40.3666 540 42.6666 539 45.2C538.133 47.6666 537.2 50.2666 536.2 52.9999H554.2C553.2 50.2666 552.267 47.6666 551.4 45.2C550.467 42.6666 549.567 40.3666 548.7 38.2999C547.9 36.2333 547.2 34.3999 546.6 32.7999C546 31.2666 545.533 30.0332 545.2 29.0999ZM606.7 78.7999C603.233 78.7999 599.767 78.6999 596.3 78.4999C592.9 78.2999 589.333 77.7999 585.6 76.9999V15.7C588.533 15.1666 591.733 14.7666 595.2 14.4999C598.667 14.2333 601.9 14.0999 604.9 14.0999C608.9 14.0999 612.567 14.3999 615.9 14.9999C619.3 15.5333 622.233 16.5 624.7 17.9C627.1 19.3 628.967 21.1666 630.3 23.4999C631.7 25.6999 632.4 28.4666 632.4 31.7999C632.4 36.8666 629.967 40.8666 625.1 43.7999C629.1 45.3333 631.833 47.3999 633.3 49.9999C634.767 52.5999 635.5 55.5333 635.5 58.7999C635.5 65.4666 633.067 70.4666 628.2 73.7999C623.4 77.1333 616.233 78.7999 606.7 78.7999ZM608.4 50.4H599.5V66.7999C600.567 66.8666 601.7 66.9333 602.9 66.9999C604.1 67.0666 605.433 67.0999 606.9 67.0999C611.167 67.0999 614.6 66.4999 617.2 65.2999C619.8 64.0999 621.1 61.8666 621.1 58.5999C621.1 55.6666 620 53.6 617.8 52.4C615.667 51.0666 612.533 50.4 608.4 50.4ZM599.5 25.7999V39.5999H606.4C610.8 39.5999 613.933 39.0333 615.8 37.9C617.733 36.7666 618.7 34.9666 618.7 32.4999C618.7 29.8999 617.7 28.0999 615.7 27.0999C613.767 26.0332 610.933 25.4999 607.2 25.4999C605.933 25.4999 604.6 25.5332 603.2 25.5999C601.8 25.5999 600.567 25.6666 599.5 25.7999ZM675.7 79.2999C665.433 79.2999 657.6 76.4333 652.2 70.7C646.867 64.9666 644.2 56.8333 644.2 46.2999C644.2 41.0999 645.033 36.4666 646.7 32.4C648.3 28.2666 650.533 24.7999 653.4 21.9999C656.267 19.1333 659.667 16.9666 663.6 15.4999C667.533 14.0333 671.833 13.2999 676.5 13.2999C679.167 13.2999 681.6 13.5333 683.8 13.9999C685.933 14.3333 687.833 14.7666 689.5 15.2999C691.167 15.8333 692.533 16.3666 693.6 16.9C694.733 17.4333 695.533 17.8666 696 18.2L691.9 29.7C689.967 28.6333 687.667 27.7333 685 26.9999C682.467 26.2666 679.567 25.9 676.3 25.9C674.1 25.9 671.933 26.2666 669.8 26.9999C667.733 27.7333 665.867 28.9332 664.2 30.5999C662.667 32.1332 661.4 34.1999 660.4 36.7999C659.467 39.3333 659 42.4332 659 46.0999C659 48.9666 659.3 51.6999 659.9 54.2999C660.567 56.7666 661.6 58.9 663 60.7C664.467 62.5666 666.333 64.0332 668.6 65.0999C670.933 66.1666 673.733 66.7 677 66.7C679.067 66.7 680.933 66.5666 682.6 66.2999C684.2 66.0333 685.667 65.7666 687 65.4999C688.267 65.0999 689.367 64.6999 690.3 64.2999C691.3 63.8999 692.2 63.4999 693 63.0999L696.9 74.4999C694.9 75.6999 692.067 76.7999 688.4 77.7999C684.733 78.7999 680.5 79.2999 675.7 79.2999Z" fill="#2B2C2D"/>
<path d="M0.0999756 81.2999V24.4L23.8 0.699951V57.5999H80.7L57 81.2999H0.0999756Z" fill="#80858E"/>
<path d="M77.9 57.7999H24.3V3.59985H77.9V57.7999Z" fill="#E6E6E6"/>
</svg>
