<svg width="137" height="34" viewBox="0 0 137 34" fill="none" xmlns="http://www.w3.org/2000/svg">
<path d="M46.5999 10.7H40.8999V21H46.5999V19.6H42.5999V16.5H46.1999V15.1H42.5999V12.1H46.5999V10.7ZM60.2999 21H61.8999V16.2C61.8999 13.9 60.4999 12.7 58.5999 12.7C57.3999 12.7 56.1999 13.3 55.6999 14.3C55.1999 13.2 54.0999 12.7 52.7999 12.7C51.7999 12.7 50.8999 13.1 50.3999 13.8V12.8H48.6999V21H50.3999V16.4C50.3999 14.9 51.1999 14.2 52.3999 14.2C53.6999 14.2 54.4999 14.9 54.4999 16.4V21H56.1999V16.4C56.1999 14.9 56.9999 14.2 58.1999 14.2C59.3999 14.2 60.2999 14.9 60.2999 16.4V21ZM65.7999 14.1V12.9H64.0999V24.9H65.7999V19.8C66.2999 20.5 67.1999 21.2 68.5999 21.2C70.6999 21.2 72.3999 19.4 72.3999 16.9C72.3999 14.4 70.6999 12.7 68.5999 12.7C67.2999 12.7 66.2999 13.4 65.7999 14.1ZM70.6999 16.9C70.6999 18.7 69.4999 19.7 68.1999 19.7C66.9999 19.7 65.7999 18.7 65.7999 16.9C65.7999 15.2 66.9999 14.2 68.1999 14.2C69.4999 14.2 70.6999 15.1 70.6999 16.9ZM75.7999 16.7C75.7999 15 76.5999 14.5 77.7999 14.5H78.1999V12.7C77.0999 12.7 76.2999 13.2 75.7999 14.1V12.9H74.0999V21H75.7999V16.7ZM83.1999 14.1C84.4999 14.1 85.4999 14.9 85.4999 16.2H80.9999C81.1999 14.9 82.0999 14.1 83.1999 14.1ZM86.9999 18.6H85.1999C84.8999 19.2 84.2999 19.7 83.2999 19.7C81.9999 19.7 81.0999 18.9 80.9999 17.6H87.1999C87.1999 17.3 87.2999 17 87.2999 16.7C87.2999 14.3 85.5999 12.7 83.2999 12.7C80.8999 12.7 79.1999 14.4 79.1999 16.9C79.1999 19.5 80.8999 21.1 83.2999 21.1C85.2999 21.1 86.5999 20 86.9999 18.6ZM94.9999 18.7C94.8999 15.8 90.2999 16.7 90.2999 15.1C90.2999 14.5 90.7999 14.1 91.6999 14.1C92.5999 14.1 93.0999 14.6 93.1999 15.3H94.8999C94.7999 13.7 93.5999 12.7 91.6999 12.7C89.7999 12.7 88.5999 13.8 88.5999 15.1C88.5999 18.1 93.2999 17.1 93.2999 18.7C93.2999 19.3 92.7999 19.7 91.7999 19.7C90.8999 19.7 90.2999 19.2 90.1999 18.5H88.4999C88.4999 20 89.8999 21.1 91.8999 21.1C93.7999 21.1 94.9999 20.1 94.9999 18.7ZM96.1999 16.9C96.1999 19.4 97.8999 21.1 100.1 21.1C101.4 21.1 102.4 20.5 102.9 19.8V21H104.6V12.9H102.9V14C102.4 13.4 101.5 12.7 100.1 12.7C97.8999 12.7 96.1999 14.4 96.1999 16.9ZM102.9 16.9C102.9 18.7 101.7 19.7 100.4 19.7C99.1999 19.7 97.9999 18.7 97.9999 16.9C97.9999 15.1 99.1999 14.2 100.4 14.2C101.7 14.2 102.9 15.2 102.9 16.9ZM113.7 21H116.4L112.7 10.6H109.7L106 21H108.6L109.2 19.2H113.1L113.7 21ZM112.4 17.2H109.9L111.2 13.4L112.4 17.2ZM123.2 17.8C123.2 18.5 122.7 18.9 121.8 18.9H120V16.6H121.8C122.6 16.6 123.2 17.1 123.2 17.8ZM122.9 13.7C122.9 14.4 122.5 14.8 121.6 14.8H120V12.6H121.6C122.5 12.6 122.9 13 122.9 13.7ZM125.7 18.1C125.7 17 124.9 15.9 123.7 15.6C124.7 15.4 125.5 14.5 125.5 13.3C125.5 11.6 124.2 10.6 122.1 10.6H117.4V21H122.3C124.5 21 125.7 19.9 125.7 18.1ZM126.8 15.8C126.8 18.9 128.9 21 132 21C134.5 21 136.3 19.7 136.9 17.4H134.1C133.7 18.3 132.9 18.8 132 18.8C130.4 18.8 129.3 17.6 129.3 15.8C129.3 13.9 130.4 12.8 132 12.8C132.9 12.8 133.7 13.2 134.1 14.1H136.9C136.3 11.9 134.5 10.5 132 10.5C128.9 10.5 126.8 12.7 126.8 15.8Z" fill="white"/>
<path d="M109 27.8C109 26.2 106.6 26.9 106.6 25.8C106.6 25.3 107 25.1 107.4 25.1C108 25.1 108.2 25.4 108.3 25.7H108.9C108.8 25 108.3 24.6 107.5 24.6C106.6 24.6 106 25.1 106 25.8C106 27.4 108.4 26.7 108.4 27.8C108.4 28.3 108.1 28.6 107.5 28.6C106.9 28.6 106.6 28.2 106.6 27.8H106C106 28.6 106.6 29 107.5 29C108.4 29 109 28.4 109 27.8ZM111 24.6V29H113.1V28.5H111.6V24.6H111ZM119.1 26.8C119.1 25.5 118.1 24.6 116.9 24.6C115.7 24.6 114.7 25.5 114.7 26.8C114.7 28.1 115.7 29 116.9 29C118.1 29 119.1 28.1 119.1 26.8ZM115.3 26.8C115.3 25.8 116 25.1 116.9 25.1C117.8 25.1 118.5 25.8 118.5 26.8C118.5 27.9 117.8 28.6 116.9 28.6C116 28.6 115.3 27.9 115.3 26.8ZM123.1 24.6C121.9 24.6 120.9 25.5 120.9 26.8C120.9 28.1 121.9 29 123.1 29C124.3 29 125.1 28.2 125.2 27.1V26.7H122.9V27.1H124.6C124.5 28 123.9 28.5 123.1 28.5C122.2 28.5 121.5 27.9 121.5 26.8C121.5 25.8 122.2 25.1 123.1 25.1C123.7 25.1 124.2 25.4 124.4 25.9H125.1C124.8 25.1 124 24.6 123.1 24.6ZM130.1 29H130.7L129.2 24.7H128.5L126.9 29H127.5L127.9 28H129.8L130.1 29ZM129.6 27.6H128L128.8 25.4L129.6 27.6ZM135.5 24.7V28.1L133.2 24.7H132.6V29H133.2V25.6L135.5 29H136V24.7H135.5Z" fill="#00B4FF"/>
<path fill-rule="evenodd" clip-rule="evenodd" d="M16.9998 34L0.0998535 17L16.9998 0L33.9998 17L16.9998 34ZM1.59985 17L16.9998 32.5L32.4998 17L16.9998 1.5L1.59985 17Z" fill="white"/>
<path d="M25.4 17L16.9999 25.4L8.69995 17L16.9999 8.59998L25.4 17Z" fill="#00B4FF"/>
</svg>
